<svg width="1548" height="791" viewBox="0 0 1548 791" fill="none" xmlns="http://www.w3.org/2000/svg">
<path d="M1252.02 554.837L1035.42 256.446C1035.42 256.446 967.185 310.013 940.773 357.719C915.704 403.001 904.384 486.242 904.384 486.242C879.869 472.622 830.258 439.376 814.767 476.632C799.275 513.888 819.486 536.442 834.713 560.96C834.713 560.96 736.645 617.224 671.989 617.224C443.01 617.224 310.293 417.758 107.237 417.758V512.431C302.773 532.677 446.322 715.858 660.415 702.222C741.322 697.069 804.618 658.364 879.043 634.143C895.309 660.419 964.668 724.451 989.91 705.58C1015.15 686.709 995.556 617.224 995.556 617.224C995.556 617.224 1118.88 609.281 1160.36 600.491C1212.23 589.495 1252.02 554.837 1252.02 554.837Z" fill="url(#paint0_radial)"/>
<path fill-rule="evenodd" clip-rule="evenodd" d="M1128.1 259.969C1127.85 260.136 1127.61 260.308 1127.38 260.483L1092.16 211.492C1084.88 201.359 1070.76 199.049 1060.63 206.332C1050.5 213.615 1048.19 227.734 1055.47 237.867L1276.25 545.037C1283.53 555.17 1297.65 557.481 1307.78 550.198C1317.91 542.914 1320.23 528.796 1312.94 518.662L1267.99 456.115L1428.13 346.567C1438.43 339.522 1441.07 325.46 1434.02 315.161C1426.98 304.861 1412.92 302.223 1402.62 309.268L1241.6 419.41L1153.75 297.175L1315.02 186.856C1325.32 179.81 1327.96 165.749 1320.91 155.449C1313.87 145.149 1299.81 142.511 1289.51 149.557L1128.1 259.969Z" fill="url(#paint1_radial)"/>
<path d="M335.371 219.281C327.531 219.281 320.23 218.448 313.468 216.782C306.804 215.018 301.316 212.617 297.004 209.579C295.338 208.305 294.113 206.982 293.329 205.61C292.643 204.238 292.3 202.474 292.3 200.318C292.3 197.378 293.182 194.83 294.946 192.674C296.71 190.518 298.768 189.44 301.12 189.44C302.394 189.44 303.619 189.636 304.795 190.028C305.971 190.42 307.441 191.155 309.205 192.233C313.223 194.487 317.192 196.104 321.112 197.084C325.13 198.064 329.638 198.554 334.636 198.554C340.418 198.554 344.779 197.721 347.719 196.055C350.757 194.291 352.276 191.743 352.276 188.411C352.276 186.157 350.855 184.246 348.013 182.678C345.269 181.012 339.977 179.395 332.137 177.827C322.435 175.769 314.84 173.319 309.352 170.477C303.864 167.635 299.993 164.303 297.739 160.481C295.583 156.561 294.505 151.857 294.505 146.369C294.505 140.097 296.367 134.413 300.091 129.317C303.815 124.221 308.911 120.252 315.379 117.41C321.945 114.47 329.295 113 337.429 113C344.583 113 350.953 113.784 356.539 115.352C362.125 116.92 367.221 119.37 371.827 122.702C373.591 123.976 374.816 125.348 375.502 126.818C376.286 128.19 376.678 129.905 376.678 131.963C376.678 134.903 375.796 137.451 374.032 139.607C372.366 141.763 370.357 142.841 368.005 142.841C366.731 142.841 365.555 142.694 364.477 142.4C363.399 142.008 361.88 141.224 359.92 140.048C359.43 139.754 358.009 139.019 355.657 137.843C353.403 136.569 350.708 135.589 347.572 134.903C344.534 134.119 341.202 133.727 337.576 133.727C332.578 133.727 328.56 134.707 325.522 136.667C322.484 138.529 320.965 141.028 320.965 144.164C320.965 146.026 321.504 147.545 322.582 148.721C323.66 149.897 325.669 151.073 328.609 152.249C331.549 153.327 335.91 154.454 341.692 155.63C351.1 157.688 358.499 160.187 363.889 163.127C369.279 165.969 373.101 169.301 375.355 173.123C377.609 176.945 378.736 181.453 378.736 186.647C378.736 193.115 376.923 198.848 373.297 203.846C369.671 208.746 364.575 212.568 358.009 215.312C351.541 217.958 343.995 219.281 335.371 219.281Z" fill="url(#paint2_radial)"/>
<path d="M427.109 219.134C415.349 219.134 406.038 215.802 399.178 209.138C392.318 202.474 388.889 193.409 388.889 181.943C388.889 174.397 390.555 167.733 393.887 161.951C397.219 156.169 401.874 151.71 407.852 148.574C413.928 145.438 420.837 143.87 428.579 143.87C432.695 143.87 436.811 144.409 440.927 145.487C445.043 146.565 448.669 148.084 451.805 150.044C454.843 151.906 456.362 154.748 456.362 158.57C456.362 161.608 455.627 164.107 454.157 166.067C452.785 167.929 450.972 168.86 448.718 168.86C447.248 168.86 445.827 168.664 444.455 168.272C443.083 167.782 441.564 167.096 439.898 166.214C437.938 165.332 436.271 164.695 434.899 164.303C433.527 163.813 432.009 163.568 430.343 163.568C420.641 163.568 415.79 169.497 415.79 181.355C415.79 187.235 417.015 191.743 419.465 194.879C422.013 197.917 425.639 199.436 430.343 199.436C432.009 199.436 433.527 199.24 434.899 198.848C436.369 198.358 437.987 197.672 439.751 196.79C441.711 195.908 443.279 195.271 444.455 194.879C445.729 194.389 447.101 194.144 448.571 194.144C450.825 194.144 452.638 195.124 454.01 197.084C455.48 198.946 456.215 201.396 456.215 204.434C456.215 206.296 455.823 208.011 455.039 209.579C454.255 211.049 453.177 212.176 451.805 212.96C445.043 217.076 436.811 219.134 427.109 219.134Z" fill="url(#paint3_radial)"/>
<path d="M499.433 143.87C510.605 143.87 518.837 146.565 524.129 151.955C529.519 157.247 532.214 165.332 532.214 176.21V206.933C532.214 210.657 531.087 213.597 528.833 215.753C526.677 217.811 523.639 218.84 519.719 218.84C516.289 218.84 513.447 217.86 511.193 215.9C509.037 213.94 507.861 211.294 507.665 207.962C506.293 211.49 503.99 214.234 500.756 216.194C497.522 218.154 493.651 219.134 489.143 219.134C484.145 219.134 479.637 218.154 475.619 216.194C471.601 214.136 468.416 211.343 466.064 207.815C463.81 204.189 462.683 200.122 462.683 195.614C462.683 190.42 464.006 186.304 466.652 183.266C469.396 180.13 473.708 177.876 479.588 176.504C485.468 175.132 493.406 174.446 503.402 174.446H507.371V172.682C507.371 169.252 506.587 166.802 505.019 165.332C503.451 163.764 500.805 162.98 497.081 162.98C493.063 162.98 487.183 164.352 479.441 167.096C477.187 167.88 475.276 168.272 473.708 168.272C471.258 168.272 469.298 167.39 467.828 165.626C466.358 163.862 465.623 161.559 465.623 158.717C465.623 156.561 466.064 154.797 466.946 153.425C467.828 152.053 469.249 150.828 471.209 149.75C474.639 147.986 478.951 146.565 484.145 145.487C489.339 144.409 494.435 143.87 499.433 143.87ZM495.317 201.641C498.845 201.641 501.736 200.416 503.99 197.966C506.244 195.418 507.371 192.184 507.371 188.264V186.5H505.019C498.747 186.5 494.288 187.088 491.642 188.264C488.996 189.342 487.673 191.204 487.673 193.85C487.673 196.104 488.359 197.966 489.731 199.436C491.201 200.906 493.063 201.641 495.317 201.641Z" fill="url(#paint4_radial)"/>
<path d="M559.961 218.84C556.237 218.84 553.101 217.86 550.553 215.9C548.103 213.842 546.878 210.804 546.878 206.786V125.789C546.878 121.771 548.103 118.733 550.553 116.675C553.101 114.617 556.237 113.588 559.961 113.588C563.685 113.588 566.772 114.617 569.222 116.675C571.77 118.733 573.044 121.771 573.044 125.789V206.786C573.044 210.804 571.77 213.842 569.222 215.9C566.772 217.86 563.685 218.84 559.961 218.84Z" fill="url(#paint5_radial)"/>
<path d="M601.305 218.84C597.581 218.84 594.445 217.86 591.897 215.9C589.447 213.842 588.222 210.804 588.222 206.786V125.789C588.222 121.771 589.447 118.733 591.897 116.675C594.445 114.617 597.581 113.588 601.305 113.588C605.029 113.588 608.116 114.617 610.566 116.675C613.114 118.733 614.388 121.771 614.388 125.789V206.786C614.388 210.804 613.114 213.842 610.566 215.9C608.116 217.86 605.029 218.84 601.305 218.84Z" fill="url(#paint6_radial)"/>
<path d="M677.928 151.514C679.006 149.064 680.476 147.251 682.338 146.075C684.2 144.899 686.258 144.311 688.512 144.311C691.746 144.311 694.637 145.389 697.185 147.545C699.733 149.701 701.007 152.298 701.007 155.336C701.007 157.002 700.615 158.619 699.831 160.187L660.876 238.244C659.7 240.694 658.132 242.507 656.172 243.683C654.31 244.859 652.252 245.447 649.998 245.447C646.764 245.447 643.873 244.369 641.325 242.213C638.875 240.155 637.65 237.607 637.65 234.569C637.65 232.903 638.091 231.188 638.973 229.424L648.528 210.167L623.538 160.187C622.754 158.423 622.362 156.855 622.362 155.483C622.362 152.347 623.734 149.701 626.478 147.545C629.222 145.291 632.309 144.164 635.739 144.164C638.091 144.164 640.247 144.801 642.207 146.075C644.265 147.251 645.833 149.064 646.911 151.514L662.493 185.324L677.928 151.514Z" fill="url(#paint7_radial)"/>
<path d="M195.862 360.958C191.844 360.958 188.757 359.88 186.601 357.724C184.445 355.568 183.367 352.481 183.367 348.463V269.818C183.367 265.8 184.445 262.713 186.601 260.557C188.757 258.401 191.844 257.323 195.862 257.323H246.724C250.938 257.323 254.123 258.205 256.279 259.969C258.435 261.733 259.513 264.281 259.513 267.613C259.513 274.669 255.25 278.197 246.724 278.197H209.68V297.895H243.784C252.31 297.895 256.573 301.374 256.573 308.332C256.573 311.664 255.495 314.212 253.339 315.976C251.183 317.74 247.998 318.622 243.784 318.622H209.68V340.084H246.724C255.25 340.084 259.513 343.612 259.513 350.668C259.513 354 258.435 356.548 256.279 358.312C254.123 360.076 250.938 360.958 246.724 360.958H195.862Z" fill="url(#paint8_radial)"/>
<path d="M282.398 361.84C278.674 361.84 275.538 360.86 272.99 358.9C270.54 356.842 269.315 353.804 269.315 349.786V268.789C269.315 264.771 270.54 261.733 272.99 259.675C275.538 257.617 278.674 256.588 282.398 256.588C286.122 256.588 289.209 257.617 291.659 259.675C294.207 261.733 295.481 264.771 295.481 268.789V349.786C295.481 353.804 294.207 356.842 291.659 358.9C289.209 360.86 286.122 361.84 282.398 361.84Z" fill="url(#paint9_radial)"/>
<path d="M369.459 337.732C371.713 337.732 373.526 338.614 374.898 340.378C376.368 342.142 377.103 344.445 377.103 347.287C377.103 351.207 375.192 354.196 371.37 356.254C368.038 357.92 364.069 359.341 359.463 360.517C354.955 361.595 350.79 362.134 346.968 362.134C338.932 362.134 331.925 360.615 325.947 357.577C319.969 354.539 315.363 350.178 312.129 344.494C308.895 338.81 307.278 332.146 307.278 324.502C307.278 317.25 308.797 310.782 311.835 305.098C314.971 299.316 319.283 294.857 324.771 291.721C330.357 288.487 336.629 286.87 343.587 286.87C350.349 286.87 356.278 288.34 361.374 291.28C366.47 294.22 370.39 298.385 373.134 303.775C375.976 309.165 377.397 315.486 377.397 322.738C377.397 324.992 376.858 326.756 375.78 328.03C374.8 329.206 373.33 329.794 371.37 329.794H332.562C333.248 334.498 334.767 337.879 337.119 339.937C339.471 341.995 342.95 343.024 347.556 343.024C350.006 343.024 352.26 342.779 354.318 342.289C356.376 341.701 358.679 340.917 361.227 339.937C362.697 339.349 364.118 338.859 365.49 338.467C366.96 337.977 368.283 337.732 369.459 337.732ZM344.322 304.51C340.892 304.51 338.148 305.637 336.09 307.891C334.032 310.047 332.807 313.232 332.415 317.446H355.494C354.906 308.822 351.182 304.51 344.322 304.51Z" fill="url(#paint10_radial)"/>
<path d="M424.166 362.134C412.406 362.134 403.096 358.802 396.236 352.138C389.376 345.474 385.946 336.409 385.946 324.943C385.946 317.397 387.612 310.733 390.944 304.951C394.276 299.169 398.931 294.71 404.909 291.574C410.985 288.438 417.894 286.87 425.636 286.87C429.752 286.87 433.868 287.409 437.984 288.487C442.1 289.565 445.726 291.084 448.862 293.044C451.9 294.906 453.419 297.748 453.419 301.57C453.419 304.608 452.684 307.107 451.214 309.067C449.842 310.929 448.029 311.86 445.775 311.86C444.305 311.86 442.884 311.664 441.512 311.272C440.14 310.782 438.621 310.096 436.955 309.214C434.995 308.332 433.329 307.695 431.957 307.303C430.585 306.813 429.066 306.568 427.4 306.568C417.698 306.568 412.847 312.497 412.847 324.355C412.847 330.235 414.072 334.743 416.522 337.879C419.07 340.917 422.696 342.436 427.4 342.436C429.066 342.436 430.585 342.24 431.957 341.848C433.427 341.358 435.044 340.672 436.808 339.79C438.768 338.908 440.336 338.271 441.512 337.879C442.786 337.389 444.158 337.144 445.628 337.144C447.882 337.144 449.695 338.124 451.067 340.084C452.537 341.946 453.272 344.396 453.272 347.434C453.272 349.296 452.88 351.011 452.096 352.579C451.312 354.049 450.234 355.176 448.862 355.96C442.1 360.076 433.868 362.134 424.166 362.134Z" fill="url(#paint11_radial)"/>
<path d="M506.465 343.171C513.031 343.563 516.314 346.503 516.314 351.991C516.314 355.421 514.991 357.969 512.345 359.635C509.699 361.301 505.926 361.987 501.026 361.693L496.91 361.399C488.09 360.713 481.377 358.067 476.771 353.461C472.263 348.757 470.009 342.24 470.009 333.91V307.891H465.746C457.906 307.891 453.986 304.657 453.986 298.189C453.986 291.819 457.906 288.634 465.746 288.634H470.009V279.079C470.009 275.355 471.185 272.415 473.537 270.259C475.889 268.005 479.074 266.878 483.092 266.878C487.11 266.878 490.295 268.005 492.647 270.259C494.999 272.415 496.175 275.355 496.175 279.079V288.634H504.26C512.1 288.634 516.02 291.819 516.02 298.189C516.02 304.657 512.1 307.891 504.26 307.891H496.175V336.115C496.175 337.977 496.714 339.545 497.792 340.819C498.968 342.093 500.438 342.779 502.202 342.877L506.465 343.171Z" fill="url(#paint12_radial)"/>
<path d="M569.127 287.164C572.459 286.87 575.105 287.654 577.065 289.516C579.025 291.28 580.005 293.926 580.005 297.454C580.005 301.374 579.074 304.216 577.212 305.98C575.448 307.744 572.214 308.871 567.51 309.361L563.1 309.802C558.2 310.39 554.672 311.958 552.516 314.506C550.458 316.956 549.429 320.337 549.429 324.649V349.786C549.429 353.804 548.155 356.842 545.607 358.9C543.157 360.86 540.07 361.84 536.346 361.84C532.622 361.84 529.486 360.86 526.938 358.9C524.488 356.842 523.263 353.804 523.263 349.786V298.924C523.263 295.2 524.488 292.309 526.938 290.251C529.486 288.193 532.524 287.164 536.052 287.164C539.678 287.164 542.569 288.144 544.725 290.104C546.979 292.064 548.106 294.808 548.106 298.336V301.129C549.674 296.817 552.222 293.485 555.75 291.133C559.376 288.781 563.149 287.507 567.069 287.311L569.127 287.164Z" fill="url(#paint13_radial)"/>
<path d="M597.931 361.84C594.207 361.84 591.071 360.86 588.523 358.9C586.073 356.842 584.848 353.804 584.848 349.786V299.218C584.848 295.2 586.073 292.211 588.523 290.251C591.071 288.193 594.207 287.164 597.931 287.164C601.655 287.164 604.742 288.193 607.192 290.251C609.74 292.211 611.014 295.2 611.014 299.218V349.786C611.014 353.804 609.74 356.842 607.192 358.9C604.742 360.86 601.655 361.84 597.931 361.84ZM597.931 276.874C593.521 276.874 589.993 275.747 587.347 273.493C584.799 271.141 583.525 268.054 583.525 264.232C583.525 260.41 584.799 257.372 587.347 255.118C589.993 252.864 593.521 251.737 597.931 251.737C602.243 251.737 605.722 252.864 608.368 255.118C611.014 257.372 612.337 260.41 612.337 264.232C612.337 268.054 611.014 271.141 608.368 273.493C605.82 275.747 602.341 276.874 597.931 276.874Z" fill="url(#paint14_radial)"/>
<path d="M661.031 362.134C649.271 362.134 639.961 358.802 633.101 352.138C626.241 345.474 622.811 336.409 622.811 324.943C622.811 317.397 624.477 310.733 627.809 304.951C631.141 299.169 635.796 294.71 641.774 291.574C647.85 288.438 654.759 286.87 662.501 286.87C666.617 286.87 670.733 287.409 674.849 288.487C678.965 289.565 682.591 291.084 685.727 293.044C688.765 294.906 690.284 297.748 690.284 301.57C690.284 304.608 689.549 307.107 688.079 309.067C686.707 310.929 684.894 311.86 682.64 311.86C681.17 311.86 679.749 311.664 678.377 311.272C677.005 310.782 675.486 310.096 673.82 309.214C671.86 308.332 670.194 307.695 668.822 307.303C667.45 306.813 665.931 306.568 664.265 306.568C654.563 306.568 649.712 312.497 649.712 324.355C649.712 330.235 650.937 334.743 653.387 337.879C655.935 340.917 659.561 342.436 664.265 342.436C665.931 342.436 667.45 342.24 668.822 341.848C670.292 341.358 671.909 340.672 673.673 339.79C675.633 338.908 677.201 338.271 678.377 337.879C679.651 337.389 681.023 337.144 682.493 337.144C684.747 337.144 686.56 338.124 687.932 340.084C689.402 341.946 690.137 344.396 690.137 347.434C690.137 349.296 689.745 351.011 688.961 352.579C688.177 354.049 687.099 355.176 685.727 355.96C678.965 360.076 670.733 362.134 661.031 362.134Z" fill="url(#paint15_radial)"/>
<path d="M733.355 286.87C744.527 286.87 752.759 289.565 758.051 294.955C763.441 300.247 766.136 308.332 766.136 319.21V349.933C766.136 353.657 765.009 356.597 762.755 358.753C760.599 360.811 757.561 361.84 753.641 361.84C750.211 361.84 747.369 360.86 745.115 358.9C742.959 356.94 741.783 354.294 741.587 350.962C740.215 354.49 737.912 357.234 734.678 359.194C731.444 361.154 727.573 362.134 723.065 362.134C718.067 362.134 713.559 361.154 709.541 359.194C705.523 357.136 702.338 354.343 699.986 350.815C697.732 347.189 696.605 343.122 696.605 338.614C696.605 333.42 697.928 329.304 700.574 326.266C703.318 323.13 707.63 320.876 713.51 319.504C719.39 318.132 727.328 317.446 737.324 317.446H741.293V315.682C741.293 312.252 740.509 309.802 738.941 308.332C737.373 306.764 734.727 305.98 731.003 305.98C726.985 305.98 721.105 307.352 713.363 310.096C711.109 310.88 709.198 311.272 707.63 311.272C705.18 311.272 703.22 310.39 701.75 308.626C700.28 306.862 699.545 304.559 699.545 301.717C699.545 299.561 699.986 297.797 700.868 296.425C701.75 295.053 703.171 293.828 705.131 292.75C708.561 290.986 712.873 289.565 718.067 288.487C723.261 287.409 728.357 286.87 733.355 286.87ZM729.239 344.641C732.767 344.641 735.658 343.416 737.912 340.966C740.166 338.418 741.293 335.184 741.293 331.264V329.5H738.941C732.669 329.5 728.21 330.088 725.564 331.264C722.918 332.342 721.595 334.204 721.595 336.85C721.595 339.104 722.281 340.966 723.653 342.436C725.123 343.906 726.985 344.641 729.239 344.641Z" fill="url(#paint16_radial)"/>
<path d="M793.883 361.84C790.159 361.84 787.023 360.86 784.475 358.9C782.025 356.842 780.8 353.804 780.8 349.786V268.789C780.8 264.771 782.025 261.733 784.475 259.675C787.023 257.617 790.159 256.588 793.883 256.588C797.607 256.588 800.694 257.617 803.144 259.675C805.692 261.733 806.966 264.771 806.966 268.789V349.786C806.966 353.804 805.692 356.842 803.144 358.9C800.694 360.86 797.607 361.84 793.883 361.84Z" fill="url(#paint17_radial)"/>
<defs>
<radialGradient id="paint0_radial" cx="0" cy="0" r="1" gradientUnits="userSpaceOnUse" gradientTransform="translate(700.363 653.41) rotate(-113.696) scale(224.772 568.575)">
<stop offset="0.116327" stop-color="#F2C94C"/>
<stop offset="0.548614" stop-color="#F2994A"/>
<stop offset="1" stop-color="#EB5757"/>
</radialGradient>
<radialGradient id="paint1_radial" cx="0" cy="0" r="1" gradientUnits="userSpaceOnUse" gradientTransform="translate(1244.6 350.028) rotate(177.48) scale(220.929 208.994)">
<stop offset="0.302083" stop-color="#F2C94C"/>
<stop offset="0.536458" stop-color="#F2994A"/>
<stop offset="1" stop-color="#EB5757"/>
</radialGradient>
<radialGradient id="paint2_radial" cx="0" cy="0" r="1" gradientUnits="userSpaceOnUse" gradientTransform="translate(494.229 240.958) rotate(90) scale(175.134 371.804)">
<stop offset="0.552083" stop-color="#F2C94C"/>
<stop offset="1" stop-color="#EB904D"/>
</radialGradient>
<radialGradient id="paint3_radial" cx="0" cy="0" r="1" gradientUnits="userSpaceOnUse" gradientTransform="translate(494.229 240.958) rotate(90) scale(175.134 371.804)">
<stop offset="0.552083" stop-color="#F2C94C"/>
<stop offset="1" stop-color="#EB904D"/>
</radialGradient>
<radialGradient id="paint4_radial" cx="0" cy="0" r="1" gradientUnits="userSpaceOnUse" gradientTransform="translate(494.229 240.958) rotate(90) scale(175.134 371.804)">
<stop offset="0.552083" stop-color="#F2C94C"/>
<stop offset="1" stop-color="#EB904D"/>
</radialGradient>
<radialGradient id="paint5_radial" cx="0" cy="0" r="1" gradientUnits="userSpaceOnUse" gradientTransform="translate(494.229 240.958) rotate(90) scale(175.134 371.804)">
<stop offset="0.552083" stop-color="#F2C94C"/>
<stop offset="1" stop-color="#EB904D"/>
</radialGradient>
<radialGradient id="paint6_radial" cx="0" cy="0" r="1" gradientUnits="userSpaceOnUse" gradientTransform="translate(494.229 240.958) rotate(90) scale(175.134 371.804)">
<stop offset="0.552083" stop-color="#F2C94C"/>
<stop offset="1" stop-color="#EB904D"/>
</radialGradient>
<radialGradient id="paint7_radial" cx="0" cy="0" r="1" gradientUnits="userSpaceOnUse" gradientTransform="translate(494.229 240.958) rotate(90) scale(175.134 371.804)">
<stop offset="0.552083" stop-color="#F2C94C"/>
<stop offset="1" stop-color="#EB904D"/>
</radialGradient>
<radialGradient id="paint8_radial" cx="0" cy="0" r="1" gradientUnits="userSpaceOnUse" gradientTransform="translate(494.229 240.958) rotate(90) scale(175.134 371.804)">
<stop offset="0.552083" stop-color="#F2C94C"/>
<stop offset="1" stop-color="#EB904D"/>
</radialGradient>
<radialGradient id="paint9_radial" cx="0" cy="0" r="1" gradientUnits="userSpaceOnUse" gradientTransform="translate(494.229 240.958) rotate(90) scale(175.134 371.804)">
<stop offset="0.552083" stop-color="#F2C94C"/>
<stop offset="1" stop-color="#EB904D"/>
</radialGradient>
<radialGradient id="paint10_radial" cx="0" cy="0" r="1" gradientUnits="userSpaceOnUse" gradientTransform="translate(494.229 240.958) rotate(90) scale(175.134 371.804)">
<stop offset="0.552083" stop-color="#F2C94C"/>
<stop offset="1" stop-color="#EB904D"/>
</radialGradient>
<radialGradient id="paint11_radial" cx="0" cy="0" r="1" gradientUnits="userSpaceOnUse" gradientTransform="translate(494.229 240.958) rotate(90) scale(175.134 371.804)">
<stop offset="0.552083" stop-color="#F2C94C"/>
<stop offset="1" stop-color="#EB904D"/>
</radialGradient>
<radialGradient id="paint12_radial" cx="0" cy="0" r="1" gradientUnits="userSpaceOnUse" gradientTransform="translate(494.229 240.958) rotate(90) scale(175.134 371.804)">
<stop offset="0.552083" stop-color="#F2C94C"/>
<stop offset="1" stop-color="#EB904D"/>
</radialGradient>
<radialGradient id="paint13_radial" cx="0" cy="0" r="1" gradientUnits="userSpaceOnUse" gradientTransform="translate(494.229 240.958) rotate(90) scale(175.134 371.804)">
<stop offset="0.552083" stop-color="#F2C94C"/>
<stop offset="1" stop-color="#EB904D"/>
</radialGradient>
<radialGradient id="paint14_radial" cx="0" cy="0" r="1" gradientUnits="userSpaceOnUse" gradientTransform="translate(494.229 240.958) rotate(90) scale(175.134 371.804)">
<stop offset="0.552083" stop-color="#F2C94C"/>
<stop offset="1" stop-color="#EB904D"/>
</radialGradient>
<radialGradient id="paint15_radial" cx="0" cy="0" r="1" gradientUnits="userSpaceOnUse" gradientTransform="translate(494.229 240.958) rotate(90) scale(175.134 371.804)">
<stop offset="0.552083" stop-color="#F2C94C"/>
<stop offset="1" stop-color="#EB904D"/>
</radialGradient>
<radialGradient id="paint16_radial" cx="0" cy="0" r="1" gradientUnits="userSpaceOnUse" gradientTransform="translate(494.229 240.958) rotate(90) scale(175.134 371.804)">
<stop offset="0.552083" stop-color="#F2C94C"/>
<stop offset="1" stop-color="#EB904D"/>
</radialGradient>
<radialGradient id="paint17_radial" cx="0" cy="0" r="1" gradientUnits="userSpaceOnUse" gradientTransform="translate(494.229 240.958) rotate(90) scale(175.134 371.804)">
<stop offset="0.552083" stop-color="#F2C94C"/>
<stop offset="1" stop-color="#EB904D"/>
</radialGradient>
</defs>
</svg>
